<svg width="24" height="24" viewBox="0 0 24 24" fill="none" xmlns="http://www.w3.org/2000/svg">
<path fill-rule="evenodd" clip-rule="evenodd" d="M24 12.0162C24 14.2834 23.4704 16.3239 22.4113 18.1377C21.3712 19.9514 19.8865 21.3765 17.9574 22.413C16.0284 23.4494 13.7872 23.9676 11.234 23.9676V24H5.58865V23.9676H0V0H11.2057C13.7589 0 16 0.518217 17.9291 1.55465C19.8771 2.59109 21.3712 4.01619 22.4113 5.82996C23.4704 7.64373 24 9.7058 24 12.0162ZM11.3759 17.5547C13.0213 17.5547 14.383 17.1012 15.461 16.1943C16.5579 15.2659 17.1064 13.8731 17.1064 12.0162C17.1064 10.9798 16.8416 10.0405 16.3121 9.19838C15.7825 8.33468 15.0733 7.66532 14.1844 7.19028C13.3144 6.69366 12.3783 6.44534 11.3759 6.44534V6.44534C8.41078 6.44534 6.00709 8.84903 6.00709 11.8141V12.1859C6.00709 15.151 8.41078 17.5547 11.3759 17.5547V17.5547Z" fill="white"/>
</svg>
