<svg width="455" height="724" viewBox="0 0 455 724" fill="none" xmlns="http://www.w3.org/2000/svg">
<path d="M15.9282 181.481H142.044C149.901 181.481 156.273 187.597 156.273 195.143V336.136C156.273 343.681 149.901 349.798 142.044 349.798H15.9282C8.07084 349.798 1.69844 343.681 1.69844 336.136V195.147C1.69844 187.602 8.07084 181.485 15.9282 181.485V181.481Z" fill="white"/>
<path d="M1.23086 282.177L14.7784 264.535C18.4708 259.727 23.5812 257.35 29.1643 257.84C34.6137 258.321 40.0318 261.526 44.3797 266.837L64.2863 289.634L70.3867 351.4H15.9378C7.2064 351.4 0.102623 344.554 0.102623 336.131V283.557L1.23086 282.173V282.177Z" fill="#DADADA"/>
<path d="M93.0352 257.386C96.7187 253.304 101.78 251.283 107.305 251.697C112.723 252.102 118.124 254.835 122.503 259.398L157.665 295.96L157.879 299.583V336.14C157.879 344.554 150.78 351.409 142.044 351.409H15.9283C12.0219 351.409 8.2627 350.025 5.35519 347.51L4.0575 346.384L93.0263 257.39H93.0308L93.0352 257.386Z" fill="#DADADA"/>
<path d="M156.273 299.681V336.14C156.273 343.686 149.901 349.802 142.044 349.802H15.9283C12.2671 349.802 8.92259 348.476 6.40305 346.29L61.4941 291.187" stroke="black" stroke-width="2.67" stroke-linecap="round" stroke-linejoin="round"/>
<path d="M15.9282 181.481H142.044C149.901 181.481 156.273 187.597 156.273 195.143V336.136C156.273 343.681 149.901 349.798 142.044 349.798H15.9282C8.07084 349.798 1.69844 343.681 1.69844 336.136V195.147C1.69844 187.602 8.07084 181.485 15.9282 181.485V181.481Z" stroke="black" stroke-width="2.67" stroke-linecap="round" stroke-linejoin="round"/>
<path d="M64.938 244.721C56.2958 244.721 49.2901 237.968 49.2901 229.634C49.2901 221.301 56.2958 214.548 64.938 214.548C73.5803 214.548 80.5859 221.301 80.5859 229.634C80.5859 237.968 73.5803 244.721 64.938 244.721Z" fill="black"/>
<path d="M297.135 90.4355C295.16 90.155 293.786 88.3254 294.072 86.3533C294.353 84.3812 296.186 83.0101 298.161 83.295L309.149 84.8665C311.124 85.1469 312.498 86.9765 312.212 88.9486C311.932 90.9207 310.099 92.2918 308.123 92.0069L297.135 90.431V90.4355Z" fill="black"/>
<path d="M138.906 448.558C139.789 447.262 141.127 446.394 142.666 446.1C145.841 445.499 148.922 447.592 149.524 450.757C149.587 451.073 155.964 482.444 173.096 485.876C179.304 487.122 186.702 484.616 195.09 478.442C206.466 470.059 219.345 455.053 233.387 433.845C250.243 408.39 264.206 369.875 274.89 319.379C283.501 278.682 289.981 230.226 294.146 175.36C301.161 82.9788 299.158 3.52125 299.069 0.182513L300.67 0.138H300.88L302.271 0.0934809V0.115741L309.214 0.035614L310.815 0C310.904 3.35655 312.906 83.2949 305.861 176.156C301.66 231.517 295.109 280.503 286.382 321.748C275.39 373.703 260.857 413.59 243.18 440.291C228.624 462.282 214.979 478.139 202.626 487.416C193.373 494.37 184.512 497.891 176.28 497.891C174.412 497.891 172.561 497.708 170.764 497.348C145.662 492.3 138.287 454.532 137.983 452.929C137.694 451.389 138.019 449.831 138.902 448.54V448.558H138.906Z" fill="#DADADA"/>
<path d="M240.181 648.713C226.067 645.147 215.81 637.57 217.273 631.783C218.74 625.996 231.369 624.193 245.492 627.759C259.606 631.32 269.867 638.901 268.399 644.684C266.932 650.471 254.303 652.274 240.181 648.713Z" fill="black" stroke="black" stroke-width="2.67" stroke-linecap="round" stroke-linejoin="round"/>
<path d="M218.784 648.9L252.323 659.165L263.23 623.632L231.921 617.814L218.784 648.904V648.9Z" fill="white" stroke="black" stroke-width="2.67" stroke-linecap="round" stroke-linejoin="round"/>
<path d="M345.844 642.213C343.668 636.653 352.886 627.852 366.442 622.55C379.994 617.248 392.752 617.449 394.937 623.009C397.123 628.569 387.896 637.37 374.344 642.672C360.783 647.978 348.025 647.773 345.844 642.213Z" fill="black" stroke="black" stroke-width="2.67" stroke-linecap="round" stroke-linejoin="round"/>
<path d="M345.178 626.619L378.351 610.905L394.637 645.16L361.463 660.875L345.178 626.619Z" fill="white" stroke="black" stroke-width="2.67" stroke-linecap="round" stroke-linejoin="round"/>
<path d="M278.45 497.949L318.941 385.206C318.941 385.206 318.959 385.162 318.968 385.144L325.523 364.675C325.648 364.297 325.902 363.976 326.25 363.776L404.066 319.148C404.69 318.792 405.475 318.894 405.988 319.397C406.202 319.607 411.25 324.659 415.495 335.005C419.375 344.465 423.281 360.375 419.856 382.442C414.706 415.651 368.774 466.605 349.269 486.98C344.118 492.358 342.678 500.255 345.603 507.088L396.052 621.66C396.28 622.19 396.213 622.795 395.869 623.258C395.526 623.721 394.96 623.962 394.389 623.891C372.939 621.286 356.863 628.458 347.882 644.631C347.601 645.138 347.066 645.459 346.482 645.459H346.473C345.884 645.459 345.345 645.129 345.073 644.613L280.47 523.849C276.131 515.916 275.395 506.478 278.45 497.962H278.445L278.45 497.949Z" fill="black"/>
<path d="M417.871 686.716L345.924 721.582C345.924 721.582 334.008 724.052 330.646 716.983C326.294 708.062 333.91 702.863 333.91 702.863L345.215 692.811L410.643 665.74C416.253 672.409 420.253 679.233 417.867 686.716H417.871Z" fill="white" stroke="black" stroke-width="2.67" stroke-linecap="round" stroke-linejoin="round"/>
<path d="M216.064 630.506L231.69 516.339C232.72 506.95 233.933 499.151 239.32 491.44L306.251 399.888C306.251 399.888 306.268 399.865 306.273 399.857L317.956 381.814C318.086 381.614 318.26 381.445 318.465 381.32L408.08 326.4C408.794 325.964 409.735 326.151 410.221 326.836C410.47 327.188 416.379 335.566 420.21 348.876C423.75 361.181 426.042 380.154 416.914 400.662C405.124 427.145 337.756 482.337 315.615 500.473C312.293 503.188 309.898 505.156 309.087 505.882C303.312 511.046 300.672 517.67 298.117 524.071L297.934 524.525C295.878 529.68 278.759 605.358 270 644.662C269.871 645.241 269.425 645.708 268.845 645.859C268.712 645.895 268.573 645.913 268.435 645.913C267.994 645.913 267.561 645.726 267.249 645.392C253.75 630.595 235.418 625.671 218.209 632.215C217.679 632.415 217.09 632.326 216.644 631.975C216.198 631.623 215.975 631.062 216.051 630.506H216.06H216.064Z" fill="black"/>
<path d="M397.263 284.63C397.263 284.63 462.638 376.209 450.629 405.773C438.62 435.336 405.255 420.788 405.255 420.788" stroke="black" stroke-width="5.34" stroke-miterlimit="10"/>
<path d="M416.281 405.426C398.297 436.992 347.562 467.286 311.147 505.89C305.448 511.931 302.228 518.493 299.58 525.135C298.92 526.791 295.852 538.655 293.1 550.251" stroke="white" stroke-width="2.67" stroke-linecap="round" stroke-linejoin="round"/>
<path d="M302.742 237.05L300.325 239.218C299.741 238.546 299.456 237.714 299.469 236.73C299.549 235.982 302.087 235.639 302.742 237.05Z" fill="black"/>
<path d="M177.801 347.634C178.104 360.263 181.89 370.026 185.337 369.941C188.784 369.857 190.595 359.965 190.291 347.331C189.988 334.698 186.942 324.53 183.495 324.61C180.048 324.69 177.502 335 177.805 347.63H177.801V347.634Z" fill="black"/>
<path d="M116.339 341.001C116.339 338.468 118.27 336.385 120.745 336.14C119.835 335.254 119.277 334.021 119.277 332.654C119.277 329.957 121.471 327.766 124.174 327.766H156.473L158.234 316.357C167.978 319.687 176.571 324.57 185.695 330.509C196.295 339.252 201 348.346 189.668 358.398L157.396 363.086C156.963 363.215 156.504 363.282 156.031 363.282H127.246C124.544 363.282 122.35 361.096 122.35 358.394C122.35 357.04 122.903 355.816 123.795 354.93H123.723C121.021 354.93 118.827 352.745 118.827 350.042C118.827 348.266 119.777 346.717 121.195 345.867C118.515 345.84 116.352 343.668 116.352 340.983H116.334L116.339 341.001Z" fill="white" stroke="black" stroke-width="2.67" stroke-linecap="round" stroke-linejoin="round"/>
<path d="M295.874 123.863L299.825 114.336C300.512 112.676 302.425 111.879 304.089 112.569L304.731 112.836C306.394 113.522 307.192 115.431 306.501 117.092L306.149 117.946L318.68 126.592C318.68 126.592 308.133 120.836 303.134 125.229L302.559 126.627C301.872 128.288 299.959 129.085 298.296 128.395L297.654 128.127C295.99 127.442 295.192 125.532 295.883 123.872H295.879L295.874 123.863Z" fill="white" stroke="black" stroke-width="2.67" stroke-linecap="round" stroke-linejoin="round"/>
<path d="M278.671 160.638C277.708 132.294 317.231 131.27 333.7 158.305C350.173 185.345 340.522 192.289 340.522 196.376C340.522 199.959 345.463 211.093 349.985 220.53C353.932 228.766 350.552 238.635 342.373 242.717L338.186 244.81C326.574 250.606 312.825 241.56 313.989 228.65C314.003 228.477 314.025 228.307 314.043 228.143C314.765 222.569 308.13 213.88 304.183 209.268C295.773 213.141 284.986 215.812 280.379 207.242C272.308 192.231 278.667 160.633 278.667 160.633L278.671 160.638Z" fill="white" stroke="black" stroke-width="2.67" stroke-linecap="round" stroke-linejoin="round"/>
<path d="M241.055 709.736L165.728 687.406C162.602 686.685 156.497 681.993 157.808 674.986C159.311 667.347 165.625 665.945 168.452 665.869L184.323 666.074L249.742 689.739C249.381 698.286 247.749 705.881 241.055 709.727V709.736Z" fill="white" stroke="black" stroke-width="2.67" stroke-linecap="round" stroke-linejoin="round"/>
<path d="M349.837 683.698C355.492 673.758 356.83 662.927 353.82 651.495C353.637 650.796 353.945 650.066 354.56 649.706C357.664 647.912 385.124 632.3 394.565 637.753C394.922 637.962 395.18 638.292 395.296 638.674C395.622 639.574 399.711 650.68 407.323 659.281C415.631 668.674 417.464 673.246 417.54 673.442C417.838 674.216 417.504 675.084 416.759 675.45L350.627 708.174C350.404 708.285 350.163 708.338 349.918 708.338C349.73 708.338 349.539 708.307 349.356 708.236C348.941 708.08 348.607 707.76 348.437 707.354C348.41 707.292 345.762 701.127 340.473 697.97C340.018 697.699 339.733 697.223 339.697 696.697C339.666 696.168 339.893 695.664 340.303 695.339C340.357 695.295 345.588 691.159 349.833 683.69L349.837 683.698Z" fill="black"/>
<path d="M176.973 678.753C176.995 678.69 179.167 672.476 177.428 666.698C177.276 666.19 177.383 665.647 177.717 665.237C178.047 664.828 178.56 664.605 179.091 664.645C179.153 664.645 185.695 665.108 193.727 662.504C204.42 659.041 212.581 652.074 217.981 641.799C218.316 641.158 219.038 640.829 219.738 640.98C223.181 641.728 253.482 648.588 256.706 658.8C256.822 659.17 256.804 659.562 256.648 659.913C256.599 660.025 251.863 671.163 251.667 682.862C251.458 695.175 249.745 699.711 249.669 699.902C249.424 700.53 248.822 700.926 248.175 700.926C248.028 700.926 247.881 700.904 247.734 700.864L178.039 680.832C177.615 680.707 177.258 680.418 177.058 680.026C176.857 679.63 176.83 679.171 176.973 678.757H176.977L176.973 678.753Z" fill="black"/>
<path d="M318.605 112.106C312.041 121.049 310.069 130.206 313.129 132.33C316.188 134.453 323.118 128.742 329.682 119.794C336.246 110.85 339.091 101.872 336.032 99.7525C332.973 97.6291 325.169 103.158 318.614 112.101H318.609L318.605 112.106Z" fill="black"/>
<path d="M287.852 105.66C288.579 104.56 289.805 103.991 291.032 104.044L290.675 103.808C289.011 102.709 288.552 100.474 289.649 98.8089C290.577 97.4022 292.329 96.8591 293.85 97.3933L292.927 96.7879C291.263 95.6883 290.804 93.4536 291.901 91.7886C292.713 90.5555 294.149 89.9946 295.513 90.2172L295.152 89.9768C293.489 88.8773 293.029 86.6425 294.126 84.9776C295.228 83.3171 297.466 82.8586 299.134 83.9537L304.976 87.7955V87.7866C310.809 91.6195 335.041 103.875 335.041 103.875C337.034 115.04 333.547 123.458 322.747 128.212C313.596 126.454 295.491 115.089 292.726 113.179L288.878 110.646C287.214 109.546 286.755 107.312 287.852 105.647V105.656V105.66Z" fill="white" stroke="black" stroke-width="2.67" stroke-linecap="round" stroke-linejoin="round"/>
<path d="M182.473 326.351C182.09 325.549 182.576 324.606 183.454 324.45L248.472 312.893C250.826 310.164 264.427 293.769 274.216 268.466C277.409 260.226 283.135 248.807 292.307 241.213C297.164 237.189 301.347 235.328 302.417 235.021C305.106 233.316 333.766 215.286 345.856 199.323L361.646 176.686L312.205 131.221C326.002 122.274 332.665 110.726 334.997 99.9128L400.955 151.686C401.508 152.091 407.056 156.2 408.862 160.237C411.306 165.726 409.031 173.45 408.92 173.81L383.216 252.805L408.782 307.284C411.703 313.503 409.763 320.92 404.171 324.917C394.761 331.648 376.491 344.424 359.88 354.374C332.397 370.836 325.512 370.03 322.72 367.996L322.386 367.751L302.765 324.695C292.896 336.808 283.558 345.27 274.992 349.86C253.078 361.599 189.207 369.363 186.496 369.688C185.247 369.839 184.319 368.552 184.859 367.417C189.024 358.656 190.103 342.167 182.629 326.662L182.482 326.351H182.473Z" fill="#2BAEC1"/>
<path d="M289.597 102.183L299.836 108.834C300.081 108.994 300.153 109.324 299.992 109.568C299.89 109.724 299.72 109.809 299.542 109.809C299.439 109.809 299.341 109.782 299.252 109.724L291.56 104.729L291.136 104.453C290.306 103.91 289.78 103.078 289.588 102.183H289.593H289.597Z" fill="black" stroke="black" stroke-width="1.78" stroke-miterlimit="10"/>
<path d="M291.849 95.1631L302.735 102.228C302.98 102.388 303.051 102.718 302.891 102.962C302.788 103.118 302.619 103.203 302.44 103.203C302.338 103.203 302.235 103.176 302.15 103.118L293.611 97.5715L293.397 97.4335C292.567 96.8904 292.037 96.0579 291.849 95.1587V95.1631Z" fill="black" stroke="black" stroke-width="1.78" stroke-miterlimit="10"/>
<path d="M305.914 97.251C305.811 97.251 305.713 97.2243 305.624 97.1664L300.407 93.7787L295.622 90.6313C294.81 90.0927 294.284 89.2869 294.088 88.4055L306.199 96.2716C306.445 96.4319 306.516 96.7613 306.355 97.0061C306.253 97.1619 306.083 97.2465 305.905 97.2465V97.2554L305.914 97.251Z" fill="black" stroke="black" stroke-width="1.78" stroke-miterlimit="10"/>
<path d="M148.055 337.039C148.055 337.48 147.698 337.84 147.252 337.84H117.517C118.195 337.048 119.122 336.478 120.179 336.242H147.248C147.689 336.242 148.05 336.598 148.05 337.043L148.055 337.039Z" fill="black" stroke="black" stroke-width="1.78" stroke-miterlimit="10"/>
<path d="M148.055 346.12C148.055 346.561 147.698 346.921 147.252 346.921H119.577C119.992 346.267 120.558 345.715 121.232 345.324H147.248C147.689 345.324 148.05 345.68 148.05 346.125L148.055 346.12Z" fill="black" stroke="black" stroke-width="1.78" stroke-miterlimit="10"/>
<path d="M148.055 355.215C148.055 355.656 147.698 356.016 147.252 356.016H122.708C122.957 355.415 123.323 354.872 123.782 354.419H147.252C147.693 354.419 148.055 354.775 148.055 355.22V355.215Z" fill="black" stroke="black" stroke-width="1.78" stroke-miterlimit="10"/>
<path d="M371.379 166.136C371.379 166.136 367.606 169.604 363.767 176.437L371.379 166.136Z" fill="white"/>
<path d="M371.379 166.136C371.379 166.136 367.606 169.604 363.767 176.437" stroke="black" stroke-width="2.67" stroke-linecap="round" stroke-linejoin="round"/>
<path d="M246.915 314.794C246.915 314.794 249.55 313.979 256.578 313.414L246.915 314.794Z" fill="white"/>
<path d="M246.915 314.794C246.915 314.794 249.55 313.979 256.578 313.414" stroke="black" stroke-width="2.67" stroke-linecap="round" stroke-linejoin="round"/>
<path d="M309.538 253.415C309.538 253.415 333.151 276.301 314.613 304.662C302.938 322.531 302.617 322.318 302.617 322.318" stroke="black" stroke-width="2.67" stroke-linecap="round" stroke-linejoin="round"/>
<path d="M383.099 668.558C378.336 668.558 374.479 664.708 374.479 659.953C374.479 655.199 378.336 651.348 383.099 651.348C387.861 651.348 391.719 655.199 391.719 659.953C391.719 664.708 387.861 668.558 383.099 668.558Z" fill="white"/>
<path d="M235.239 675.565C230.477 675.565 226.619 671.715 226.619 666.96C226.619 662.206 230.477 658.355 235.239 658.355C240.002 658.355 243.859 662.206 243.859 666.96C243.859 671.715 240.002 675.565 235.239 675.565Z" fill="white"/>
<path d="M353.094 485.284C353.094 485.284 342.824 499.907 332.746 499.48" stroke="white" stroke-width="2.67" stroke-linecap="round" stroke-linejoin="round"/>
<path d="M315.5 202.768C315.5 202.768 310.372 206.463 303.919 209.397" stroke="black" stroke-width="2.67" stroke-linecap="round" stroke-linejoin="round"/>
<path d="M272.901 139.461C275.171 134.413 280.54 131.297 288.875 130.189C290.833 128.898 300.193 123.404 309.067 129.53C317.941 135.642 332.528 141.425 338.204 143.268C341.808 144.438 347.823 150.194 351.649 157.807C354.08 162.637 356.461 169.911 354.017 177.14C349.246 191.265 338.03 202.759 331.19 203.596C330.695 203.654 330.244 203.685 329.839 203.685C327.292 203.685 326.347 202.599 326.017 201.611C325.188 199.149 327.988 196.211 330.236 194.916C333.045 193.3 334.811 190.411 335.168 188.884C335.413 187.829 335.957 184.258 332.577 182.687C329.518 181.258 326.521 183.261 326.409 183.337L322.967 185.776C322.507 186.119 321.727 186.351 320.929 185.963C319.765 185.394 319.038 183.956 319.092 178.859C317.812 178.707 315.939 178.338 313.91 177.394C310.588 175.849 306.186 172.421 304.055 164.911C300.88 153.689 297.74 150.203 295.666 149.255C294.672 148.801 293.695 148.828 292.598 149.335C289.749 150.662 287.042 150.586 284.861 150.533C282.596 150.475 281.838 150.55 281.539 151.125C280.411 153.279 280.237 158.715 280.264 160.625C280.273 161.328 279.822 161.956 279.149 162.169C278.476 162.383 277.744 162.134 277.343 161.55C276.986 161.034 268.692 148.814 272.897 139.466V139.448L272.901 139.461Z" fill="black"/>
<path d="M280.613 175.28C280.613 175.28 274.486 174.336 273.822 178.966C273.162 183.595 280.203 184.045 280.203 184.045" fill="white"/>
<path d="M280.613 175.28C280.613 175.28 274.486 174.336 273.822 178.966C273.162 183.595 280.203 184.045 280.203 184.045" stroke="black" stroke-width="2.67" stroke-linecap="round" stroke-linejoin="round"/>
<path d="M296.996 159.769C296.996 159.769 294.557 156.716 291.636 158.114L296.996 159.769Z" fill="white"/>
<path d="M296.996 159.769C296.996 159.769 294.557 156.716 291.636 158.114" stroke="black" stroke-width="2.67" stroke-linecap="round" stroke-linejoin="round"/>
<path d="M283.145 158.216C283.145 158.216 281.133 156.035 278.73 157.891L283.145 158.216Z" fill="white"/>
<path d="M283.145 158.216C283.145 158.216 281.133 156.035 278.73 157.891" stroke="black" stroke-width="2.67" stroke-linecap="round" stroke-linejoin="round"/>
<path d="M291.652 175.035C290.417 175.035 289.413 174.033 289.413 172.8C289.413 171.567 290.417 170.565 291.652 170.565C292.887 170.565 293.891 171.567 293.891 172.8C293.891 174.033 292.887 175.035 291.652 175.035Z" fill="black" stroke="black" stroke-width="2.67" stroke-linecap="round" stroke-linejoin="round"/>
<path d="M277.479 171.166C277.51 170.147 277.55 169.158 277.586 168.201C277.854 167.841 278.219 167.609 278.634 167.587C279.526 167.542 280.297 168.508 280.36 169.742C280.418 170.975 279.74 172.007 278.848 172.047C278.304 172.074 277.8 171.723 277.484 171.162L277.479 171.166Z" fill="black" stroke="black" stroke-width="2.67" stroke-linecap="round" stroke-linejoin="round"/>
<path d="M295.801 190.277C295.801 190.277 285.567 195.061 276.915 191.167" stroke="black" stroke-width="2.67" stroke-linecap="round" stroke-linejoin="round"/>
<path d="M297.559 192.107C297.559 192.107 297.175 188.87 294.624 188.207" stroke="black" stroke-width="2.67" stroke-linecap="round" stroke-linejoin="round"/>
<path d="M331.473 186.618C330.469 186.23 325.551 184.801 323.829 192.801" stroke="black" stroke-width="2.67" stroke-linecap="round" stroke-linejoin="round"/>
<path d="M329.23 190.957C329.168 190.615 327.688 188.626 325.106 189.609L329.23 190.957Z" fill="white"/>
<path d="M329.23 190.957C329.168 190.615 327.688 188.626 325.106 189.609" stroke="black" stroke-width="2.67" stroke-linecap="round" stroke-linejoin="round"/>
<path d="M393.883 257.021C393.883 257.021 376.157 292.687 302.765 324.695C302.631 331.368 304.678 336.59 309.779 339.977C308.272 337.173 372.036 317.078 400.559 277.116L393.887 257.021H393.883Z" fill="white"/>
<path d="M412.392 305.312C416.806 315.702 416.106 322.723 407.843 328.296C371.834 353.128 342.487 371.695 313.701 383.888C313.67 383.831 313.643 383.773 313.612 383.715C309.768 376.169 313.309 369.438 320.564 365.049C332.212 359.89 346.487 352.927 361.773 343.659C364.097 342.252 365.149 339.421 364.297 336.848C350.919 296.177 323.953 243.857 302.045 234.758C300.497 226.705 310.098 221.986 315.744 225.325C344.137 251.265 360.948 288.044 374.545 326.418C375.856 330.126 380.369 331.519 383.557 329.204C388.833 325.38 394.139 321.271 399.41 316.864C401.234 315.342 401.957 312.862 401.248 310.596C388.958 271.337 369.225 236.356 343.989 201.664C344.685 193.83 345.457 189.694 352.908 189.249C377.693 224.639 397.765 262.501 412.008 304.311C412.062 304.471 412.115 304.631 412.169 304.791L412.396 305.321L412.392 305.312Z" fill="white"/>
<path d="M200.107 322.643C200.107 322.643 207.991 346.245 203.108 366.242C193.163 367.733 185.096 368.655 185.096 368.655C191.322 355.563 188.9 337.048 183.437 325.71L200.111 322.643H200.107Z" stroke="black" stroke-width="2.67" stroke-linecap="round" stroke-linejoin="round"/>
<path d="M322.999 139.635L313.487 131.053C321.902 124.259 333.8 111.955 335.347 100.857L345.457 109.012C345.528 113.664 334.982 133.71 322.995 139.64H322.999V139.635Z" stroke="black" stroke-width="2.67" stroke-linecap="round" stroke-linejoin="round"/>
</svg>
