<svg width="428" height="555" viewBox="0 0 428 555" fill="none" xmlns="http://www.w3.org/2000/svg">
<path d="M15.0171 170.61H205.409C212.538 170.61 218.316 175.071 218.316 180.569V240.124C218.316 245.621 212.538 250.082 205.409 250.082H15.0171C7.88843 250.082 2.10955 245.621 2.10955 240.124V180.569C2.10955 175.071 7.88843 170.61 15.0171 170.61Z" fill="white" stroke="black" stroke-width="2.5821" stroke-linecap="round" stroke-linejoin="round"/>
<path d="M290.423 222.534H412.301C419.926 222.534 426.105 228.698 426.105 236.304C426.105 243.909 419.926 250.078 412.301 250.078H290.423C282.798 250.078 276.619 243.914 276.619 236.308C276.619 228.702 282.798 222.534 290.423 222.534Z" fill="white" stroke="black" stroke-width="2.5821" stroke-linecap="round" stroke-linejoin="round"/>
<path d="M286.086 357.413H410.556C418.539 357.413 425.012 363.87 425.012 371.833V437.582C425.012 445.545 418.539 452.002 410.556 452.002H286.086C278.104 452.002 271.63 445.545 271.63 437.582V371.833C271.63 363.87 278.104 357.413 286.086 357.413Z" fill="black"/>
<path d="M348.465 380.376V433.59" stroke="white" stroke-width="4.3035" stroke-linecap="round" stroke-linejoin="round"/>
<path d="M375.523 409.104H321.918" stroke="white" stroke-width="4.3035" stroke-linecap="round" stroke-linejoin="round"/>
<path d="M15.0132 20.5713H205.405C212.534 20.5713 218.312 26.3357 218.312 33.4467V110.432C218.312 117.543 212.534 123.308 205.405 123.308H15.0132C7.88453 123.308 2.10565 117.543 2.10565 110.432V33.4467C2.10565 26.3357 7.88453 20.5713 15.0132 20.5713Z" fill="white" stroke="black" stroke-width="2.5821" stroke-linecap="round" stroke-linejoin="round"/>
<path d="M35.0486 48.6797H132.504C136.718 48.6797 140.129 52.0867 140.129 56.2853C140.129 60.4839 136.713 63.8866 132.504 63.8866H35.0486C30.8352 63.8866 27.4239 60.4796 27.4239 56.2853C27.4239 52.091 30.8395 48.6797 35.0486 48.6797Z" fill="black"/>
<path d="M84.3845 79.9797H132.504C136.718 79.9797 140.129 83.3868 140.129 87.5854C140.129 91.784 136.713 95.1867 132.504 95.1867H84.3845C80.1711 95.1867 76.7598 91.7797 76.7598 87.5854C76.7598 83.3911 80.1754 79.9797 84.3845 79.9797Z" fill="black"/>
<path d="M197.205 90.7686C172.08 90.7686 151.708 70.4511 151.708 45.3843C151.708 20.3175 172.08 0 197.205 0C222.33 0 242.703 20.3175 242.703 45.3843C242.703 70.4511 222.33 90.7686 197.205 90.7686Z" fill="#544CF4"/>
<path d="M197.793 77.1532C180.206 77.1532 165.949 62.9313 165.949 45.3927C165.949 27.8542 180.206 13.6323 197.793 13.6323C215.38 13.6323 229.633 27.8542 229.633 45.3927C229.633 62.9313 215.375 77.1532 197.793 77.1532Z" fill="white"/>
<path d="M166.944 32.6337C168.63 28.5728 171.067 24.9335 174.18 21.8318C177.294 18.7259 180.938 16.2954 185.009 14.6134C189.076 12.9357 193.376 12.0796 197.792 12.0796H199.34V46.933H164.395V45.3887C164.395 40.9922 165.253 36.7033 166.939 32.6381L166.944 32.6337Z" fill="#544CF4"/>
<path d="M423.461 490.236H277.791" stroke="black" stroke-width="2.5821" stroke-linecap="round" stroke-linejoin="round"/>
<path d="M423.461 516.589H333.975" stroke="black" stroke-width="2.5821" stroke-linecap="round" stroke-linejoin="round"/>
<path d="M44.9628 237.846C51.1726 235.543 58.2055 232.935 65.2424 228.85C83.8354 218.051 83.553 207.216 83.0849 189.273C82.8872 181.719 82.6653 173.154 83.7547 162.898C85.3324 148.051 94.4352 136.636 110.059 129.89C120.101 125.556 129.668 124.461 132.428 124.223C133.433 122.658 136.249 118.83 141.358 116.061C147.24 112.865 157.396 110.519 172.366 117.494C182.861 122.38 189.293 131.488 191.479 144.577C193.283 155.352 191.879 166.694 190.951 174.2C190.58 177.215 190.285 179.602 190.285 181.127C190.285 184.967 192.545 187.261 195.676 190.437C199.598 194.417 204.48 199.368 207.058 209.535C209.064 217.44 205.59 228.355 196.725 241.963C190.233 251.941 183.071 259.793 182.998 259.87C182.72 260.18 182.312 260.349 181.901 260.341C181.699 260.349 181.235 260.796 180.763 262.526C180.222 264.502 179.855 267.441 179.431 270.842C178.354 279.467 176.877 291.276 171.051 301.35C166.669 308.929 150.561 312.761 123.156 312.761C121.962 312.761 120.747 312.753 119.508 312.737C99.2206 312.495 79.8045 310.318 77.1455 310.008C74.4986 310.793 56.6722 315.586 41.3919 307.251C32.1519 302.212 25.7969 293.393 22.4923 281.037C14.0108 249.304 26.9952 244.491 44.9628 237.834H44.9588L44.9628 237.846Z" fill="black"/>
<path d="M113.729 388.879H209.672C210.434 388.879 211.068 389.467 211.116 390.227L222.063 552.454C222.091 552.853 221.95 553.243 221.676 553.537C221.401 553.831 221.018 553.996 220.618 553.996H113.729C112.926 553.996 112.28 553.352 112.28 552.551V390.324C112.28 389.523 112.926 388.879 113.729 388.879Z" fill="black"/>
<path d="M79.7357 427.554C88.5037 406.597 99.4222 391.17 99.5311 391.013C99.8015 390.63 100.241 390.405 100.713 390.405H168.077C168.484 390.405 168.868 390.574 169.146 390.872C169.42 391.169 169.558 391.564 169.521 391.97L163.344 466.543L201.938 551.963C202.14 552.41 202.103 552.933 201.833 553.34C201.567 553.751 201.107 554 200.614 554H101.298C100.798 554 100.326 553.738 100.068 553.312C86.0343 530.575 76.6813 512.604 72.259 499.898C63.709 475.322 71.6053 446.991 79.7357 427.554Z" fill="black"/>
<path d="M168.105 413.427C172.055 434.063 170.704 455.922 163.739 468.52L201.23 553.744" stroke="white" stroke-width="2.41586" stroke-linecap="round" stroke-linejoin="round"/>
<path d="M163.364 208.931C174.52 207.132 186.597 199.291 179.826 171.874C170.715 135.006 148.273 135.392 139.174 137.203C137.246 137.59 135.817 139.2 135.66 141.156C135.063 148.549 128.373 167.185 121.558 171.21C119.851 172.216 118.842 174.079 118.846 176.055V178.885C118.705 180.624 114.287 177.879 107.847 177.975C101.407 178.072 97.9534 183.413 99.1921 188.714C100.431 194.014 103.086 197.021 106.455 199.404C109.828 201.791 114.856 201.489 117.975 200.446C120.238 199.686 122.09 198.47 124.306 199.368C128.07 200.885 131.242 205.972 131.633 209.675C132.242 215.463 129.595 228.814 129.595 228.814C129.595 228.814 141.337 237.306 151.34 238.143C161.342 238.976 167.177 231.281 167.177 231.281L163.36 208.939L163.364 208.931Z" fill="white" stroke="black" stroke-width="2.41586" stroke-linecap="round" stroke-linejoin="round"/>
<path d="M163.363 208.932C163.363 208.932 155.931 209.58 150.879 207.24" stroke="black" stroke-width="2.41586" stroke-linecap="round" stroke-linejoin="round"/>
<path d="M163.763 165.679C163.763 165.679 170.97 163.305 172.709 168.758C174.448 174.212 166.035 176.172 166.035 176.172" fill="white"/>
<path d="M163.763 165.679C163.763 165.679 170.97 163.305 172.709 168.758C174.448 174.212 166.035 176.172 166.035 176.172" stroke="black" stroke-width="2.41586" stroke-linecap="round" stroke-linejoin="round"/>
<path d="M176.497 224.853L165.574 224.169C165.574 224.169 150.718 237.882 130.208 222.076L113.717 226.013C113.717 226.013 122.832 370.329 113.717 383.297L205.867 380.87C205.867 380.87 171.449 233.571 176.497 224.845V224.853Z" fill="white" stroke="black" stroke-width="2.41586" stroke-linecap="round" stroke-linejoin="round"/>
<path d="M100.713 371.572H205.871V390.324H100.713V371.572Z" fill="white" stroke="black" stroke-width="2.41586" stroke-linecap="round" stroke-linejoin="round"/>
<path d="M140.85 150.256C140.85 150.256 143.843 146.682 147.648 147.785L140.85 150.256Z" fill="white"/>
<path d="M140.85 150.256C140.85 150.256 143.843 146.682 147.648 147.785" stroke="black" stroke-width="2.41586" stroke-linecap="round" stroke-linejoin="round"/>
<path d="M157.262 146.514C157.262 146.514 159.251 143.478 162.527 145.237L157.262 146.514Z" fill="white"/>
<path d="M157.262 146.514C157.262 146.514 159.251 143.478 162.527 145.237" stroke="black" stroke-width="2.41586" stroke-linecap="round" stroke-linejoin="round"/>
<path d="M148.466 186.83C148.466 186.83 161.793 190.541 171.457 184.102" stroke="black" stroke-width="2.41586" stroke-linecap="round" stroke-linejoin="round"/>
<path d="M146.705 189.394C146.705 189.394 146.515 185.413 149.465 184.093" stroke="black" stroke-width="2.41586" stroke-linecap="round" stroke-linejoin="round"/>
<path d="M106.086 187.015C107.215 186.166 112.933 182.616 117.973 192.119" stroke="black" stroke-width="2.41586" stroke-linecap="round" stroke-linejoin="round"/>
<path d="M110.47 191.716C110.425 191.258 111.591 188.215 115.219 188.545L110.47 191.716Z" fill="white"/>
<path d="M110.47 191.716C110.425 191.258 111.591 188.215 115.219 188.545" stroke="black" stroke-width="2.41586" stroke-linecap="round" stroke-linejoin="round"/>
<path d="M215.388 389.374H82.8201C74.258 389.374 67.3057 396.309 67.3057 404.85V424.403C67.3057 432.944 74.258 439.879 82.8201 439.879H215.388C223.95 439.879 230.902 432.944 230.902 424.403V404.858C230.902 396.317 223.95 389.382 215.388 389.382V389.374Z" fill="black"/>
<path d="M113.729 222.877C113.729 222.877 91.2783 218.917 70.7767 243.992C50.2712 269.067 18.5243 337.683 18.5243 348.9C18.5243 348.9 14.7799 372.16 28.8215 385.454C42.863 398.749 69.1144 394.671 69.1144 394.671C69.1144 394.671 54.0318 425.989 75.6873 438.164C75.6873 438.164 60.0559 411.338 90.7295 401.9C121.407 392.462 134.02 371.5 136.078 355.437C138.136 339.37 150.806 229.353 113.729 222.889V222.877Z" fill="#DADADA"/>
<path d="M113.79 328.667C108.447 318.766 106.26 309.589 108.903 308.169C111.55 306.748 118.026 313.622 123.368 323.523C128.715 333.425 130.902 342.601 128.255 344.022C125.612 345.443 119.136 338.568 113.79 328.667Z" fill="black" stroke="black" stroke-width="2.41586" stroke-linecap="round" stroke-linejoin="round"/>
<path d="M174.541 226.169C174.541 226.169 162.75 339.784 203.895 387.873C245.039 435.958 214.462 439.879 214.462 439.879C214.462 439.879 234.931 449.699 240.443 410.775C245.955 371.85 265.173 342.424 251.862 325.097C238.551 307.762 228.04 248.946 201.45 229.397C190.866 221.617 174.541 226.178 174.541 226.178V226.169Z" fill="#DADADA"/>
<path d="M200.618 272.423C200.618 272.423 214.716 359.92 220.555 371.572L200.618 272.423Z" fill="white"/>
<path d="M200.618 272.423C200.618 272.423 214.716 359.92 220.555 371.572" stroke="black" stroke-width="2.41586" stroke-linecap="round" stroke-linejoin="round"/>
<path d="M103.938 272.423C103.938 272.423 98.3088 308.639 86.8334 320.09" stroke="black" stroke-width="2.41586" stroke-linecap="round" stroke-linejoin="round"/>
<path d="M143.684 294.781L163.358 277.696C165.614 275.736 169.04 275.965 171.001 278.219C172.966 280.469 172.728 283.882 170.472 285.842L150.798 302.928C148.542 304.888 145.12 304.659 143.155 302.405C141.19 300.155 141.424 296.742 143.68 294.781H143.684Z" fill="white" stroke="black" stroke-width="2.41586" stroke-linecap="round" stroke-linejoin="round"/>
<path d="M110.352 320.645C110.352 320.645 146.437 293.832 157.993 289.549C169.545 285.267 203.575 287.114 203.575 287.114C203.575 287.114 207.312 287.967 204.871 291.863C204.435 291.445 209.692 293.425 206.412 297.997C206.246 298.315 210.281 301.829 206.017 304.655L180.124 311.312L191.62 319.534C193.504 320.883 193.851 323.543 192.37 325.33C191.2 326.739 189.231 327.17 187.573 326.389L166.28 316.343C166.28 316.343 156.181 330.639 147.877 331.939C139.569 333.239 124.523 339.667 122.433 340.625C116.994 340.347 107.023 321.209 110.356 320.625V320.633L110.352 320.645Z" fill="white" stroke="black" stroke-width="2.41586" stroke-linecap="round" stroke-linejoin="round"/>
<path d="M203.891 291.868L166.527 295.148" stroke="black" stroke-width="2.41586" stroke-linecap="round" stroke-linejoin="round"/>
<path d="M60.1497 334.583L109.186 307.935C105.256 309.086 109.202 339.933 128.086 344.118C128.086 344.118 95.4796 382.58 69.1113 394.663" stroke="black" stroke-width="2.41586" stroke-linecap="round" stroke-linejoin="round"/>
<path d="M205.871 298.537L168.104 301.857" stroke="black" stroke-width="2.41586" stroke-linecap="round" stroke-linejoin="round"/>
<path d="M180.117 311.324L174.642 307.943" stroke="black" stroke-width="2.41586" stroke-linecap="round" stroke-linejoin="round"/>
<path d="M215.114 368.461H143.688C139.855 368.461 136.736 371.568 136.736 375.396V377.831C136.736 381.655 139.85 384.766 143.688 384.766H215.114C218.947 384.766 222.066 381.659 222.066 377.831V375.396C222.066 371.572 218.951 368.461 215.114 368.461Z" fill="#2BAEC1"/>
<path d="M201.993 376.438L218.855 280.759C219.452 277.378 222.378 274.923 225.816 274.923H353.727C355.817 274.923 357.79 275.836 359.134 277.438C360.486 279.044 361.051 281.149 360.683 283.21L343.821 378.89C343.224 382.27 340.299 384.726 336.861 384.726H208.949C206.859 384.726 204.886 383.812 203.543 382.21C202.191 380.604 201.626 378.499 201.993 376.438Z" fill="black"/>
<path d="M206.415 376.684L222.765 284.196C223.346 280.904 226.199 278.517 229.552 278.517H353.59C355.632 278.517 357.556 279.414 358.868 280.972C360.183 282.534 360.732 284.582 360.381 286.587L344.031 379.074C343.45 382.367 340.597 384.754 337.244 384.754H213.206C211.165 384.754 209.24 383.856 207.929 382.298C206.613 380.737 206.064 378.688 206.415 376.684Z" fill="#2BAEC1"/>
<path d="M146.644 162.323C147.334 161.445 148.33 160.89 149.44 160.757C149.751 160.717 150.049 160.725 150.348 160.753C150.985 160.005 150.711 159.043 150.666 158.91C150.412 158.161 150.808 157.344 151.554 157.078C152.309 156.813 153.14 157.207 153.402 157.96C153.729 158.89 153.89 160.572 152.978 162.045C153.572 162.673 153.979 163.486 154.088 164.408C154.217 165.515 153.915 166.609 153.217 167.487C152.527 168.364 151.53 168.92 150.42 169.052C150.251 169.073 150.081 169.081 149.92 169.081C148.988 169.081 148.084 168.771 147.342 168.183C146.462 167.495 145.905 166.501 145.776 165.394C145.647 164.287 145.95 163.192 146.648 162.315V162.323H146.644Z" fill="black"/>
<path d="M164.563 154.864C164.765 154.84 164.962 154.836 165.16 154.844C165.447 154.192 165.257 153.52 165.225 153.407C164.971 152.659 165.366 151.842 166.112 151.576C166.867 151.31 167.698 151.705 167.96 152.458C168.251 153.271 168.404 154.663 167.827 155.995C168.433 156.603 168.852 157.404 168.957 158.314C169.211 160.475 167.662 162.443 165.495 162.697C165.334 162.717 165.18 162.725 165.027 162.725C163.05 162.725 161.335 161.248 161.101 159.244C160.847 157.082 162.396 155.114 164.563 154.86V154.864Z" fill="black"/>
<path d="M79.593 428.299C93.0697 427.12 105.473 420.527 114.12 407.74C118.123 401.819 121.476 392.932 122.944 388.907L126.16 389.056C124.72 393.206 121.084 402.584 116.573 409.281C107.236 423.139 93.1261 430.875 78.2453 431.748C78.6407 430.742 79.1854 429.281 79.593 428.299Z" fill="white" stroke="white" stroke-width="0.402644" stroke-miterlimit="10"/>
<path d="M194.21 389.036C194.61 394.752 198.406 419.38 213.59 429.832L213.832 433.873C205.455 428.959 197.898 419.686 194.271 407.132C192.08 399.553 190.591 391.584 190.425 388.968L194.218 389.032H194.214L194.21 389.036Z" fill="white" stroke="white" stroke-width="0.402644" stroke-miterlimit="10"/>
<path d="M262.274 399.815C262.274 409.209 264.707 416.832 267.713 416.832C270.719 416.832 273.152 409.213 273.152 399.815C273.152 390.417 270.756 384.094 267.758 384.094C264.76 384.094 262.282 390.421 262.282 399.815H262.278H262.274Z" fill="black" stroke="black" stroke-width="2.41586" stroke-linecap="round" stroke-linejoin="round"/>
<path d="M277.57 383.111C281.415 381.84 290.551 365.704 292.83 362.786C293.795 361.546 295.889 361.035 296.748 361.204C299 361.647 299.964 364.681 299.964 364.681C299.964 364.681 303.858 358.648 306.658 355.126C309.458 351.605 312.029 351.846 313.59 352.369C315.152 352.889 315.551 354.402 315.551 354.402C315.551 354.402 317.609 350.462 320.813 351.645C324.016 352.828 322.753 356.342 322.753 356.342L312.109 372.945C312.109 372.945 318.089 367.024 324.775 361.908C327.281 359.992 328.983 360.52 330.577 361.586C332.171 362.653 331.683 365.845 330.985 366.428C329.923 367.326 302.986 397.07 302.986 397.07C302.986 397.07 299.956 400.221 288.731 398.414C277.506 396.607 261.717 398.704 260.551 401.155C259.385 403.606 245.743 391.471 245.743 391.471C245.743 391.471 246.263 389.197 248.345 386.146L277.562 383.107H277.578L277.57 383.111Z" fill="white" stroke="black" stroke-width="2.41586" stroke-linecap="round" stroke-linejoin="round"/>
<path d="M302.535 360.274L287.711 384.794" stroke="black" stroke-width="2.41586" stroke-linecap="round" stroke-linejoin="round"/>
<path d="M315.551 354.406C315.551 354.406 295.755 385.16 293.661 389.105L315.551 354.406Z" fill="white"/>
<path d="M315.551 354.406C315.551 354.406 295.755 385.16 293.661 389.105" stroke="black" stroke-width="2.41586" stroke-linecap="round" stroke-linejoin="round"/>
<path d="M312.117 372.945L300.936 391.624" stroke="black" stroke-width="2.41586" stroke-linecap="round" stroke-linejoin="round"/>
<path d="M266.257 382.83C266.257 382.83 259.587 392.888 261.976 404.403C264.368 415.918 268.25 416.667 268.25 416.667C268.25 416.667 249.161 419.014 222.732 384.746L266.253 382.83H266.257Z" fill="#DADADA"/>
<path d="M266.551 384.19C266.551 384.19 259.595 392.888 261.983 404.407C264.368 415.926 268.258 416.671 268.258 416.671C268.258 416.671 249.786 420.338 223.357 386.066" stroke="black" stroke-width="2.41586" stroke-linecap="round" stroke-linejoin="round"/>
</svg>
